<svg width="20" height="20" viewBox="0 0 20 20" fill="none" xmlns="http://www.w3.org/2000/svg">
<path d="M8.66675 2.66666C7.87882 2.66666 7.0986 2.82186 6.37065 3.12339C5.64269 3.42492 4.98126 3.86687 4.42411 4.42402C3.86696 4.98117 3.425 5.64261 3.12347 6.37056C2.82194 7.09852 2.66675 7.87873 2.66675 8.66666C2.66675 9.4546 2.82194 10.2348 3.12347 10.9628C3.425 11.6907 3.86696 12.3522 4.42411 12.9093C4.98126 13.4665 5.64269 13.9084 6.37065 14.2099C7.0986 14.5115 7.87882 14.6667 8.66675 14.6667C9.45468 14.6667 10.2349 14.5115 10.9628 14.2099C11.6908 13.9084 12.3522 13.4665 12.9094 12.9093C13.4665 12.3522 13.9085 11.6907 14.21 10.9628C14.5116 10.2348 14.6667 9.4546 14.6667 8.66666C14.6667 7.87873 14.5116 7.09852 14.21 6.37056C13.9085 5.64261 13.4665 4.98117 12.9094 4.42402C12.3522 3.86687 11.6908 3.42492 10.9628 3.12339C10.2349 2.82186 9.45468 2.66666 8.66675 2.66666V2.66666Z" stroke="#A5A5A5" stroke-width="2" stroke-miterlimit="10"/>
<path d="M17.3333 17.3333L12.958 12.958" stroke="#A5A5A5" stroke-width="2" stroke-miterlimit="10" stroke-linecap="round"/>
</svg>
