<svg width="20" height="11" viewBox="0 0 20 11" fill="none" xmlns="http://www.w3.org/2000/svg">
<path d="M19.8002 1.13393L18.7982 0.189065C18.6647 0.0628892 18.5109 0 18.3371 0C18.1636 0 18.0099 0.0628892 17.8764 0.189065L10.0001 7.61682L2.12418 0.189264C1.9906 0.063088 1.83688 0.000198489 1.66322 0.000198489C1.48949 0.000198489 1.33577 0.063088 1.20226 0.189264L0.200471 1.13419C0.0666833 1.2601 0 1.40508 0 1.56892C0 1.73263 0.0668939 1.87761 0.200471 2.00352L9.53915 10.8111C9.67266 10.937 9.82645 11 10.0001 11C10.1738 11 10.3273 10.937 10.4607 10.8111L19.8002 2.00352C19.9337 1.87754 20 1.73257 20 1.56892C20 1.40508 19.9337 1.2601 19.8002 1.13393Z" fill="#00F0FF"/>
</svg>
